G04 Layer_Color=8388736*
%FSLAX24Y24*%
%MOIN*%
G70*
G01*
G75*
G04:AMPARAMS|DCode=30|XSize=53.2mil|YSize=49.3mil|CornerRadius=0mil|HoleSize=0mil|Usage=FLASHONLY|Rotation=225.000|XOffset=0mil|YOffset=0mil|HoleType=Round|Shape=Rectangle|*
%AMROTATEDRECTD30*
4,1,4,0.0014,0.0363,0.0363,0.0014,-0.0014,-0.0363,-0.0363,-0.0014,0.0014,0.0363,0.0*
%
%ADD30ROTATEDRECTD30*%

G04:AMPARAMS|DCode=31|XSize=25.7mil|YSize=29.6mil|CornerRadius=0mil|HoleSize=0mil|Usage=FLASHONLY|Rotation=45.000|XOffset=0mil|YOffset=0mil|HoleType=Round|Shape=Rectangle|*
%AMROTATEDRECTD31*
4,1,4,0.0014,-0.0196,-0.0196,0.0014,-0.0014,0.0196,0.0196,-0.0014,0.0014,-0.0196,0.0*
%
%ADD31ROTATEDRECTD31*%

%ADD32R,0.0257X0.0296*%
%ADD33R,0.0296X0.0257*%
%ADD34R,0.0257X0.0316*%
%ADD35R,0.0277X0.0296*%
%ADD36R,0.1910X0.1910*%
%ADD37O,0.0139X0.0316*%
%ADD38O,0.0316X0.0139*%
%ADD39R,0.0454X0.0769*%
D30*
X1221Y2782D02*
D03*
X832Y3171D02*
D03*
X748Y2308D02*
D03*
X358Y2698D02*
D03*
D31*
X1181Y3409D02*
D03*
X1459Y3131D02*
D03*
X409Y2081D02*
D03*
X131Y2359D02*
D03*
X429Y1661D02*
D03*
X151Y1939D02*
D03*
D32*
X2220Y-803D02*
D03*
Y-1197D02*
D03*
X1790Y673D02*
D03*
Y1067D02*
D03*
Y2093D02*
D03*
Y2487D02*
D03*
X-1720Y921D02*
D03*
Y1315D02*
D03*
X1290Y1523D02*
D03*
Y1917D02*
D03*
X1840Y-803D02*
D03*
Y-1197D02*
D03*
X-1720Y-923D02*
D03*
Y-1317D02*
D03*
X-1050Y3337D02*
D03*
Y2943D02*
D03*
X-2850Y3337D02*
D03*
Y2943D02*
D03*
D33*
X2103Y1090D02*
D03*
X2497D02*
D03*
D34*
X1790Y347D02*
D03*
Y-27D02*
D03*
X2070Y-103D02*
D03*
Y-477D02*
D03*
X1790Y1767D02*
D03*
Y1393D02*
D03*
D35*
X800Y-1633D02*
D03*
Y-2027D02*
D03*
D36*
X-0Y0D02*
D03*
D37*
X-866Y1191D02*
D03*
X-709D02*
D03*
X-551D02*
D03*
X-394D02*
D03*
X-236D02*
D03*
X-79D02*
D03*
X79D02*
D03*
X236D02*
D03*
X394D02*
D03*
X551D02*
D03*
X709D02*
D03*
X866D02*
D03*
Y-1191D02*
D03*
X709D02*
D03*
X551D02*
D03*
X394D02*
D03*
X236D02*
D03*
X79D02*
D03*
X-79D02*
D03*
X-236D02*
D03*
X-394D02*
D03*
X-551D02*
D03*
X-709D02*
D03*
X-866D02*
D03*
D38*
X1191Y866D02*
D03*
Y709D02*
D03*
Y551D02*
D03*
Y394D02*
D03*
Y236D02*
D03*
Y79D02*
D03*
Y-79D02*
D03*
Y-236D02*
D03*
Y-394D02*
D03*
Y-551D02*
D03*
Y-709D02*
D03*
Y-866D02*
D03*
X-1191D02*
D03*
Y-709D02*
D03*
Y-551D02*
D03*
Y-394D02*
D03*
Y-236D02*
D03*
Y-79D02*
D03*
Y79D02*
D03*
Y236D02*
D03*
Y394D02*
D03*
Y551D02*
D03*
Y709D02*
D03*
Y866D02*
D03*
D39*
X-1458Y3140D02*
D03*
X-2442D02*
D03*
M02*
