G04 Layer_Color=8388736*
%FSLAX24Y24*%
%MOIN*%
G70*
G01*
G75*
%ADD33R,0.0277X0.0296*%
%ADD34O,0.0316X0.0139*%
%ADD35O,0.0139X0.0316*%
%ADD36R,0.1910X0.1910*%
G04:AMPARAMS|DCode=37|XSize=53.2mil|YSize=49.3mil|CornerRadius=0mil|HoleSize=0mil|Usage=FLASHONLY|Rotation=225.000|XOffset=0mil|YOffset=0mil|HoleType=Round|Shape=Rectangle|*
%AMROTATEDRECTD37*
4,1,4,0.0014,0.0363,0.0363,0.0014,-0.0014,-0.0363,-0.0363,-0.0014,0.0014,0.0363,0.0*
%
%ADD37ROTATEDRECTD37*%

%ADD38R,0.0355X0.0375*%
%ADD39R,0.0257X0.0316*%
%ADD40R,0.0375X0.0355*%
%ADD41R,0.0257X0.0296*%
%ADD42R,0.0454X0.0769*%
G04:AMPARAMS|DCode=43|XSize=25.7mil|YSize=29.6mil|CornerRadius=0mil|HoleSize=0mil|Usage=FLASHONLY|Rotation=45.000|XOffset=0mil|YOffset=0mil|HoleType=Round|Shape=Rectangle|*
%AMROTATEDRECTD43*
4,1,4,0.0014,-0.0196,-0.0196,0.0014,-0.0014,0.0196,0.0196,-0.0014,0.0014,-0.0196,0.0*
%
%ADD43ROTATEDRECTD43*%

%ADD44R,0.0296X0.0257*%
D33*
X800Y-2027D02*
D03*
Y-1633D02*
D03*
D34*
X-1191Y866D02*
D03*
Y709D02*
D03*
Y551D02*
D03*
Y394D02*
D03*
Y236D02*
D03*
Y79D02*
D03*
Y-79D02*
D03*
Y-236D02*
D03*
Y-394D02*
D03*
Y-551D02*
D03*
Y-709D02*
D03*
Y-866D02*
D03*
X1191D02*
D03*
Y-709D02*
D03*
Y-551D02*
D03*
Y-394D02*
D03*
Y-236D02*
D03*
Y-79D02*
D03*
Y79D02*
D03*
Y236D02*
D03*
Y394D02*
D03*
Y551D02*
D03*
Y709D02*
D03*
Y866D02*
D03*
D35*
X-866Y-1191D02*
D03*
X-709D02*
D03*
X-551D02*
D03*
X-394D02*
D03*
X-236D02*
D03*
X-79D02*
D03*
X79D02*
D03*
X236D02*
D03*
X394D02*
D03*
X551D02*
D03*
X709D02*
D03*
X866D02*
D03*
Y1191D02*
D03*
X709D02*
D03*
X551D02*
D03*
X394D02*
D03*
X236D02*
D03*
X79D02*
D03*
X-79D02*
D03*
X-236D02*
D03*
X-394D02*
D03*
X-551D02*
D03*
X-709D02*
D03*
X-866D02*
D03*
D36*
X-0Y0D02*
D03*
D37*
X1221Y2782D02*
D03*
X832Y3171D02*
D03*
X748Y2308D02*
D03*
X358Y2698D02*
D03*
D38*
X-1774Y800D02*
D03*
X-2306D02*
D03*
D39*
X-2640Y1147D02*
D03*
Y773D02*
D03*
X1790Y347D02*
D03*
Y-27D02*
D03*
X2070Y-103D02*
D03*
Y-477D02*
D03*
X1790Y1767D02*
D03*
Y1393D02*
D03*
D40*
X-2300Y1244D02*
D03*
Y1776D02*
D03*
X-1590Y1244D02*
D03*
Y1776D02*
D03*
D41*
X-2850Y3337D02*
D03*
Y2943D02*
D03*
X2170Y-803D02*
D03*
Y-1197D02*
D03*
X1790Y673D02*
D03*
Y1067D02*
D03*
Y2093D02*
D03*
Y2487D02*
D03*
X1290Y1523D02*
D03*
Y1917D02*
D03*
X1840Y-803D02*
D03*
Y-1197D02*
D03*
X-1720Y-923D02*
D03*
Y-1317D02*
D03*
X-1050Y3337D02*
D03*
Y2943D02*
D03*
D42*
X-1458Y3140D02*
D03*
X-2442D02*
D03*
D43*
X1181Y3409D02*
D03*
X1459Y3131D02*
D03*
X409Y2081D02*
D03*
X131Y2359D02*
D03*
X429Y1661D02*
D03*
X151Y1939D02*
D03*
D44*
X2103Y1090D02*
D03*
X2497D02*
D03*
M02*
